<?xml version="1.0" standalone="no"?>
<!DOCTYPE svg PUBLIC "-//W3C//DTD SVG 20010904//EN"
 "http://www.w3.org/TR/2001/REC-SVG-20010904/DTD/svg10.dtd">
<svg version="1.0" xmlns="http://www.w3.org/2000/svg"
 width="200.000000pt" height="200.000000pt" viewBox="0 0 200.000000 200.000000"
 preserveAspectRatio="xMidYMid meet">
<metadata>
Created by potrace 1.10, written by Peter Selinger 2001-2011
</metadata>
<g transform="translate(0.000000,200.000000) scale(0.100000,-0.100000)"
fill="#000000" stroke="none">
<path d="M144 1752 c-12 -9 -27 -27 -33 -39 -8 -15 -11 -187 -11 -573 l0 -552
34 -34 34 -34 331 0 331 0 0 -127 0 -128 -57 0 c-49 0 -58 -3 -58 -18 0 -17
17 -18 285 -18 268 0 285 1 285 18 0 15 -9 18 -58 18 l-57 0 0 128 0 127 325
0 c212 0 332 4 348 11 13 6 31 23 40 39 15 25 17 83 17 575 0 383 -3 553 -11
568 -6 12 -21 30 -33 39 -19 16 -80 18 -856 18 -776 0 -837 -2 -856 -18z
m1700 -44 c14 -20 16 -90 16 -565 0 -530 0 -543 -20 -563 -20 -20 -33 -20
-840 -20 -807 0 -820 0 -840 20 -20 20 -20 33 -20 565 0 532 0 545 20 565 20
20 33 20 844 20 l825 0 15 -22z m-714 -1313 l0 -125 -130 0 -130 0 0 125 0
125 130 0 130 0 0 -125z"/>
<path d="M1103 1463 c-3 -10 -61 -157 -129 -327 -68 -170 -121 -313 -118 -318
18 -29 42 16 163 318 72 180 128 331 125 335 -9 15 -34 10 -41 -8z"/>
<path d="M510 1270 c-119 -67 -195 -115 -195 -124 0 -18 383 -235 403 -228 33
12 -2 38 -167 129 l-178 99 179 99 c119 66 178 104 176 114 -2 8 -7 16 -13 17
-5 2 -98 -46 -205 -106z"/>
<path d="M1277 1373 c-19 -18 7 -37 172 -128 l180 -99 -177 -98 c-97 -53 -178
-101 -180 -106 -1 -5 3 -14 10 -19 10 -8 66 19 208 98 107 60 196 115 198 123
2 9 -67 53 -197 125 -110 61 -201 111 -204 111 -2 0 -7 -3 -10 -7z"/>
</g>
</svg>
